<?xml version="1.0" encoding="utf-8"?>
<!-- Generator: Adobe Illustrator 19.0.0, SVG Export Plug-In . SVG Version: 6.00 Build 0)  -->
<svg version="1.1" id="Layer_1" xmlns="http://www.w3.org/2000/svg" xmlns:xlink="http://www.w3.org/1999/xlink" x="0px" y="0px"
	 width="2048px" height="2048px" viewBox="774 -774 2048 2048" style="enable-background:new 774 -774 2048 2048;"
	 xml:space="preserve">
<style type="text/css">
	.st0{display:none;fill:#424242;}
	.st1{fill:none;}
	.st2{fill:#FFFFFE;}
</style>
<rect x="774" y="-774" class="st0" width="2048" height="2048"/>
<g id="Layer_x0020_1">
	<rect x="774" y="-774" class="st1" width="2048" height="2048"/>
	<g id="_307097800">
		<path id="_307097608" class="st2" d="M1830-470v102.5h-64V-470c0-16.7,16.6-29.9,32.9-29.7C1814.6-499.4,1830.1-484.9,1830-470
			L1830-470z M1830-224.5V988.8h-64V-224.5H1830z"/>
		<path id="_307097944" class="st2" d="M1798-399.5c28.6,0,54.5,11.6,73.2,30.3s30.3,44.6,30.3,73.2s-11.6,54.5-30.3,73.2
			c-18.7,18.7-44.6,30.3-73.2,30.3s-54.5-11.6-73.2-30.3c-18.7-18.7-30.3-44.6-30.3-73.2s11.6-54.5,30.3-73.2
			S1769.4-399.5,1798-399.5z"/>
		<path id="_307097344" class="st2" d="M1229.2-264c-17.7,0-32-14.3-32-32s14.3-32,32-32h497.3c17.7,0,32,14.3,32,32s-14.3,32-32,32
			H1229.2z M1869.5-264c-17.7,0-32-14.3-32-32s14.3-32,32-32h497.3c17.7,0,32,14.3,32,32s-14.3,32-32,32H1869.5z"/>
		<path id="_307095352" class="st2" d="M1030,506h261h261h32v32c0,80.9-32.8,154.2-85.8,207.2c-53,53-126.3,85.8-207.2,85.8
			c-80.9,0-154.2-32.8-207.2-85.8c-53-53-85.8-126.3-85.8-207.2v-32H1030L1030,506z"/>
		<polygon id="_307097440" class="st2" points="1324.5,-291.4 1584,506 1523,525 1263.5,-272.4 		"/>
		<polygon id="_307096096" class="st2" points="1318.5,-272.4 1059,525 998,506 1257.5,-291.4 		"/>
		<path id="_307097176" class="st2" d="M2012,506h261h261h32v32c0,80.9-32.8,154.2-85.8,207.2c-53,53-126.3,85.8-207.2,85.8
			c-80.9,0-154.2-32.8-207.2-85.8c-53-53-85.8-126.3-85.8-207.2v-32H2012L2012,506z"/>
		<polygon id="_307100656" class="st2" points="2306.5,-291.4 2566,506 2505,525 2245.5,-272.4 		"/>
		<polygon id="_307101688" class="st2" points="2300.5,-272.4 2041,525 1980,506 2239.5,-291.4 		"/>
		<path id="_307101736" class="st2" d="M1959.5,1018h-322.9C1636.5,908.1,1959.5,908.1,1959.5,1018z"/>
	</g>
</g>
</svg>
